<?xml version="1.0" encoding="UTF-8"?>
<svg id="Layer_1" xmlns="http://www.w3.org/2000/svg" version="1.1" viewBox="0 0 278.5 326.7">
  <!-- Generator: Adobe Illustrator 30.1.0, SVG Export Plug-In . SVG Version: 2.1.1 Build 136)  -->
  <defs>
    <style>
      .st0 {
        fill: #961b1e;
      }

      .st1 {
        fill: #fff;
      }
    </style>
  </defs>
  <rect class="st0" x="-.3" y="-.4" width="278.5" height="326.7"/>
  <path class="st1" d="M176.8,268.6h-9.1v19.7h70.7l-35.1-250.6h-39l3.4,37.7h-6.8l3.4-37.7h-98.9l-29.5,250.6h128.4v-25.9l-1.3.3c-1.2.3-2.1,1.4-2.1,2.7v3.2h-9.1c-3.3,0-6-2.7-6-6v-8.6c0,3.3,2.7,6,6,6h24.9c3.3,0,6-2.7,6-6v8.6c0,3.3-2.7,6-6,6ZM135.4,246c-17.7,0-35.4,0-53,0-.8,0-1.7,0-2.5-.2-6.9-1.3-11.8-6-12.9-12.1,0-.4-.1-.7-.2-1.1,0-.3,0-.5,0-.8,0-.2,0-.4,0-.6,0-.3,0-.6,0-.9,0-.4,0-.8,0-1.2,0-.2.1-.4.1-.6,0-.4.2-.8.3-1.2.2-.6.3-1.2.5-1.7.1-.4.3-.7.5-1.1.2-.3.3-.7.5-1,0,0,0,0,0,0,2.7-4.5,7.6-7.5,13.5-7.5,17.7,0,35.4,0,53.1,0v29.7ZM135.4,211.6c-20.7,0-41.4,0-62.2,0-.5,0-1.1,0-1.6,0-2.6-.1-4.8-1.9-4.9-4.2,0-2.2,0-5.9,0-7.6,0-3.1,2-5.1,5.7-5.1h0l19.5,12c5.1,2.8,10.4,0,10.4,0l25.5-12h7.6v16.9ZM135.4,191.4c-4.5,0-9-1.3-12.8-4-1.5-1-2.7-2.2-4.1-3.3-3.4-2.7-7.6-2.7-11.1-.1-1.1.8-2,1.7-3,2.5-7.1,5.9-18.2,6.5-26.1,1.4-1.7-1.1-3.1-2.6-4.8-3.8-1.6-1.3-3.4-2-5.7-2.1-3.6,0-5.9-2.4-5.8-5.5.2-2.7,3-4.8,6.4-4.6,5.5.3,10.2,2.1,14,5.5.9.8,1.9,1.7,3,2.4,3.2,2.1,7.1,2,10.1-.3.9-.7,1.7-1.4,2.5-2.1,8.2-7.3,21.1-7.3,29.3,0,1.1.9,2.1,1.9,3.4,2.6,1.4.8,2.9,1.2,4.5,1.2v10ZM135.4,122.5c-.7-.4-1.6-.5-2.3-.5-2.5,0-4.2.8-5.2,2.5-1,1.7-.9,3.5.5,4.9,1.9,2,4,3.8,6.3,5.4.2.2.5.3.7.4v5.5c-1.5-.8-3.3-.8-5-.2-2,.8-3,2.2-3.1,4.5,0,1,.5,2.1,1.6,3.1,1.6,1.5,3.3,2.9,5,4.3.5.4,1,.7,1.5.9v14.2c-21,0-42,0-63.1,0-3.6,0-5.6-1.8-5.7-4.8,0-3.7.4-7.3,1.2-10.8,2.8-11.4,9.1-21.1,19.1-29,11.7-9.3,25.6-14.2,41.6-14.5,2.3,0,4.5,0,6.8,0v14.1ZM182.9,198.8c0,3.3-2.7,6-6,6h-24.9c-3.3,0-6-2.7-6-6v-.3c2.5-.4,5.8-1.5,8.9-4.2,6.2-5.3,6.8-7,16.5-7.4,0,0-2.5-1.7-6.9-1.7s-9.8,5.1-13.7,6.3c-1.5.5-3.2.7-4.8.7v-8c0-3.3,2.7-6,6-6h24.9c3.3,0,6,2.7,6,6v14.4ZM182.9,149.7c0,3.3-2.7,6-6,6h-24.9c-3.3,0-6-2.7-6-6v-14.4c0-3.3,2.7-6,6-6h24.9c2.4,0,4.5,1.4,5.5,3.5-.5,1.3-1.4,2.5-3.2,2.8-4.1.6-12.7,2.2-13.1,6.9,0,0,4.2-5.4,16.9-4.6v11.8ZM145.9,90.9c4.4,2.9,10.1,6.3,12.5,6.3,4.2,0,6.6-1.2,6.6-1.2-7.9-.4-15.5-6.4-19.1-9.7v-.3c0-3.3,2.7-6,6-6h24.9c3.3,0,6,2.7,6,6v14.4c0,3.3-2.7,6-6,6h-24.9c-3.3,0-6-2.7-6-6v-9.6ZM145.9,106.3c0,3.3,2.7,6,6,6h24.9c3.3,0,6-2.7,6-6v8.6c0,3.3-2.7,6-6,6h-9.1v4.9h-3.4v-11.1l-1.3.3c-1.2.3-2.1,1.4-2.1,2.7v3.2h-9.1c-3.3,0-6-2.7-6-6v-8.6ZM145.9,155.4c0,3.3,2.7,6,6,6h24.9c3.3,0,6-2.7,6-6v8.6c0,3.3-2.7,6-6,6h-9.1v4.9h-3.4v-11.1l-1.3.3c-1.2.3-2.1,1.4-2.1,2.7v3.2h-9.1c-3.3,0-6-2.7-6-6v-8.6ZM145.9,204.5c0,3.3,2.7,6,6,6h24.9c3.3,0,6-2.7,6-6v8.6c0,3.3-2.7,6-6,6h-9.1v4.9h-3.4v-11.1l-1.3.3c-1.2.3-2.1,1.4-2.1,2.7v3.2h-9.1c-3.3,0-6-2.7-6-6v-8.6ZM176.8,254.3h-9.2c1.7-1.6,4.1-4.5,5.7-8.7,2.8-7,5.5-6.7,5.5-6.7,0,0-3-1.7-6.5,2.1-2.7,2.9-8.2,10-14.6,13.3h-5.8c-3.3,0-6-2.7-6-6v-14.4c0-3.3,2.7-6,6-6h24.9c3.3,0,6,2.7,6,6v14.4c0,3.3-2.7,6-6,6Z"/>
  <path class="st1" d="M106.9,132c-1.7-1.2-3.8-1.2-5.7-.4-1.9.8-2.9,2.3-2.9,4.4,0,.8.3,1.8,1.1,2.6,1.9,1.9,3.9,3.7,6.2,5.3,2.2,1.6,5.2,1.3,7.2-.3,2-1.7,2.3-4.3.5-6.2-1.9-2-4-3.8-6.3-5.4Z"/>
</svg>