<?xml version="1.0" encoding="UTF-8"?>
<svg id="Capa_2" data-name="Capa 2" xmlns="http://www.w3.org/2000/svg" viewBox="0 0 722.28 315.25">
  <defs>
    <style>
      .cls-1 {
        fill: #231f20;
      }

      .cls-2 {
        fill: #981b1e;
      }

      .cls-3 {
        fill: #fff;
      }
    </style>
  </defs>
  <g id="Layer_1" data-name="Layer 1">
    <g>
      <rect class="cls-3" width="722.28" height="315.25"/>
      <path class="cls-1" d="M32.35,227.12V33.31h120.59l-13.99,126.79c-.47,2.63-.82,3.58-2.46,5.04-1.64,1.47-3.75,2.55-6.34,3.23l-25.1,5.95,22.51,52.79h-41.4l-16.3-44.76-1.29.52v44.25h-36.23ZM120.6,61.26h-52.02v93.93l32.6-7.76,19.42-86.17Z"/>
      <path class="cls-1" d="M339.87,198.91h56.31l-22.03-165.6h36.23l22.03,193.81h-128.76l-7.01-64.43,36.23-12.68,7.01,48.9Z"/>
      <path class="cls-1" d="M575.36,33.38h0v-.07s-36.18,0-36.18,0v.05s-120.38-.05-120.38-.05l4.28,36.4h.04s4.93,41.59,4.93,41.59h0s13.71,115.82,13.71,115.82h35.84l-7.79-67.97,49.48,12.26-8.05,55.7h36.87l6.62-46.92h.05s4.99-35.6,4.99-35.6h-.04s10.65-75.84,10.65-75.84l4.98-35.38ZM465.38,120.74l-5.89-51.21,74.52-.37-9.58,66.5-59.05-14.93Z"/>
      <path class="cls-1" d="M656.73,99.92v-38.81h-36.66l-11.94,41.3,84.83,34v90.56h-135.57l8.15-55.6,36.23-12.68-8.15,40.07h63.11v-46.32l-84.83-33.74,11.94-85.55h109.12v54.08l-36.23,12.68Z"/>
      <g>
        <path class="cls-1" d="M123.77,264.82c.42-.62.9-1.15,1.45-1.6.55-.45,1.16-.81,1.82-1.07.67-.26,1.35-.4,2.05-.4,1.36,0,2.41.49,3.14,1.47s.93,2.17.6,3.57c-.2.7-.5,1.36-.9,1.97-.4.62-.88,1.15-1.45,1.6s-1.18.8-1.85,1.05c-.67.25-1.35.38-2.05.38-1.4,0-2.45-.47-3.17-1.42-.72-.95-.89-2.14-.52-3.57.17-.7.46-1.36.87-1.97Z"/>
        <path class="cls-1" d="M158.44,258.36l-7.64,2.45,1.9-7.49h-5.89l-2.3,9.23,11.53,5.29-4.34,17.47h-19.87l2.6-10.43,7.59-2.45-1.85,7.44h5.89l2.25-8.94-11.58-5.24,4.44-17.77h19.87l-2.6,10.43Z"/>
        <path class="cls-1" d="M185.8,247.93l-1.35,5.39h-6.94l-7.99,32h-6.99l7.99-32h-6.89l1.35-5.39h20.82Z"/>
        <path class="cls-1" d="M180.36,285.32l9.33-37.39h17.27l-2.8,24.46c-.1.37-.34.69-.72.97s-.84.49-1.37.62l-5.14,1.15,4.19,10.18h-7.99l-3.39-8.64-.25.1-2.15,8.54h-6.99ZM199.38,253.32h-4.04l-4.54,18.12,6.69-1.5,1.9-16.62Z"/>
        <path class="cls-1" d="M213.91,247.93h18.37l-1.35,5.39h-11.38l-4.14,16.57,12.03-2.6-1.4,5.54-12.03,2.6-1.1,4.44h11.38l-1.35,5.44h-18.37l9.33-37.39Z"/>
        <path class="cls-1" d="M236.18,247.93h18.37l-1.35,5.39h-11.38l-4.14,16.57,12.03-2.6-1.4,5.54-12.03,2.6-1.1,4.44h11.38l-1.35,5.44h-18.37l9.33-37.39Z"/>
        <path class="cls-1" d="M279.26,247.93l-1.35,5.39h-6.94l-7.99,32h-6.99l7.99-32h-6.89l1.35-5.39h20.82Z"/>
        <path class="cls-1" d="M306.97,272.83l-12.03,2.6-2.45,9.88h-6.99l9.33-37.39h18.37l-1.35,5.39h-11.38l-4.14,16.57,12.03-2.6-1.4,5.54Z"/>
        <path class="cls-1" d="M337.63,247.93l-9.34,37.39h-20.57l9.34-37.39h20.57ZM329.29,253.32h-6.59l-6.64,26.56h6.59l6.64-26.56Z"/>
        <path class="cls-1" d="M361.99,247.93l-9.33,37.39h-20.57l9.34-37.39h20.57ZM353.66,253.32h-6.59l-6.64,26.56h6.59l6.64-26.56Z"/>
        <path class="cls-1" d="M383.11,247.93l-2.8,24.46c-.1.37-.38.75-.85,1.15-.47.4-.95.78-1.45,1.15l-14.53,10.63h-6.99l9.34-37.39h17.27ZM365.49,277.28l8.34-6.59,1.7-17.37h-4.04l-5.99,23.96Z"/>
        <path class="cls-1" d="M416.66,285.32h-7.09l.2-2.5-8.64-1.95h-.05l-1.8,4.44h-7.14l15.62-37.39h12.08l-3.19,37.39ZM410.27,277.18l1.95-22.11h-.45l-8.44,20.52,6.94,1.6Z"/>
        <path class="cls-1" d="M450.21,247.93l-9.33,37.39h-6.99l7.64-30.65-6.99,1.65-7.24,29h-6.99l9.34-37.39h6.99l-.75,2.99,13.48-2.99h.85Z"/>
        <path class="cls-1" d="M471.38,247.93l-2.8,24.46c-.1.37-.38.75-.85,1.15-.47.4-.95.78-1.45,1.15l-14.53,10.63h-6.99l9.34-37.39h17.27ZM453.76,277.28l8.34-6.59,1.7-17.37h-4.04l-5.99,23.96Z"/>
        <path class="cls-1" d="M489.01,279.87h6.84l1.5-5.94-4.39,1,1.4-5.59,11.73-2.5-5.69,22.86h-6.99l1.1-4.39h-13.83l9.34-37.39h20.82l-3.69,14.78h-6.99l2.35-9.38h-6.84l-6.64,26.56Z"/>
        <path class="cls-1" d="M505.39,285.32l9.34-37.39h17.27l-2.8,24.46c-.1.37-.34.69-.72.97-.38.28-.84.49-1.37.62l-5.14,1.15,4.19,10.18h-7.99l-3.39-8.64-.25.1-2.15,8.54h-6.99ZM524.41,253.32h-4.04l-4.54,18.12,6.69-1.5,1.9-16.62Z"/>
        <path class="cls-1" d="M545.93,247.93l-9.33,37.39h-6.99l9.34-37.39h6.99Z"/>
        <path class="cls-1" d="M564.1,270.44l-3.69,14.88h-19.92l9.34-37.39h6.99l-7.99,31.95h5.94l1.75-6.99,7.59-2.44Z"/>
        <path class="cls-1" d="M587.91,270.44l-3.69,14.88h-19.92l9.34-37.39h6.99l-7.99,31.95h5.94l1.75-6.99,7.59-2.44Z"/>
        <path class="cls-1" d="M593.38,264.82c.42-.62.9-1.15,1.45-1.6.55-.45,1.16-.81,1.82-1.07.67-.26,1.35-.4,2.05-.4,1.37,0,2.41.49,3.15,1.47s.93,2.17.6,3.57c-.2.7-.5,1.36-.9,1.97s-.88,1.15-1.45,1.6-1.18.8-1.85,1.05c-.66.25-1.35.38-2.05.38-1.4,0-2.45-.47-3.17-1.42-.72-.95-.89-2.14-.52-3.57.17-.7.46-1.36.87-1.97Z"/>
      </g>
      <g>
        <path class="cls-2" d="M248.55,211.88h-7.01v15.23h54.68l-27.16-193.81h-30.14l2.62,29.12h-5.24l2.62-29.12h-76.46l-22.81,193.81h99.27v-20.03l-1.01.26c-.95.25-1.61,1.11-1.61,2.09v2.44h-7.01c-2.58,0-4.67-2.09-4.67-4.67v-6.65c0,2.58,2.09,4.67,4.67,4.67h19.25c2.58,0,4.67-2.09,4.67-4.67v6.65c0,2.58-2.09,4.67-4.67,4.67ZM216.49,194.38c-13.67,0-27.35,0-41.02,0-.63,0-1.28,0-1.9-.12-5.37-.99-9.14-4.65-10-9.35-.06-.29-.11-.58-.15-.87-.02-.2-.04-.41-.05-.62,0-.15-.04-.3-.04-.46,0-.24.06-.46.07-.7.02-.3-.01-.59.03-.89.02-.16.08-.29.11-.45.06-.31.14-.61.22-.91.12-.45.25-.9.42-1.31.11-.28.26-.55.39-.82.12-.24.22-.51.36-.74,0,0,.03,0,.06,0,2.07-3.45,5.91-5.77,10.42-5.77,13.69,0,27.39,0,41.08,0v23ZM216.49,167.77c-16.03,0-32.05,0-48.08,0-.42,0-.85.01-1.28,0-2.03-.09-3.75-1.51-3.8-3.25-.05-1.67-.03-4.55,0-5.87.05-2.37,1.58-3.92,4.43-3.92h.04l15.08,9.29c3.95,2.14,8.02,0,8.02,0l19.73-9.29h5.86v13.04ZM216.49,152.21c-3.45,0-6.93-1.01-9.89-3.08-1.12-.78-2.09-1.72-3.16-2.57-2.63-2.08-5.88-2.12-8.57-.09-.82.62-1.55,1.31-2.33,1.96-5.45,4.56-14.08,5.03-20.17,1.11-1.35-.87-2.43-1.98-3.68-2.94-1.25-.97-2.65-1.55-4.39-1.6-2.8-.07-4.58-1.82-4.45-4.22.12-2.1,2.36-3.73,4.97-3.57,4.22.27,7.88,1.62,10.86,4.27.72.64,1.46,1.29,2.28,1.83,2.46,1.63,5.51,1.52,7.84-.24.68-.51,1.32-1.06,1.95-1.62,6.34-5.62,16.31-5.63,22.68-.01.82.72,1.62,1.47,2.6,2.05,1.08.64,2.27.95,3.46.96v7.76ZM216.49,98.91c-.58-.3-1.22-.42-1.8-.4-1.94-.02-3.26.62-4.01,1.96-.73,1.31-.69,2.67.4,3.82,1.45,1.52,3.07,2.93,4.84,4.18.18.12.37.22.56.32v4.24c-1.19-.61-2.52-.64-3.87-.12-1.57.61-2.34,1.73-2.37,3.52-.06.77.42,1.64,1.24,2.38,1.27,1.13,2.54,2.25,3.87,3.33.35.29.74.5,1.13.68v11c-16.26,0-32.51,0-48.76,0-2.75,0-4.33-1.4-4.4-3.73-.08-2.83.29-5.62.96-8.38,2.16-8.82,7.04-16.34,14.75-22.45,9.08-7.2,19.81-11.01,32.18-11.24,1.76-.03,3.51-.02,5.27-.01v10.93ZM253.22,157.91c0,2.58-2.09,4.67-4.67,4.67h-19.25c-2.58,0-4.67-2.09-4.67-4.67v-.24c1.96-.34,4.49-1.2,6.86-3.22,4.81-4.1,5.27-5.38,12.74-5.73,0,0-1.97-1.29-5.31-1.29s-7.55,3.94-10.59,4.89c-1.18.37-2.51.52-3.71.58v-6.16c0-2.58,2.09-4.67,4.67-4.67h19.25c2.58,0,4.67,2.09,4.67,4.67v11.16ZM253.22,119.93c0,2.58-2.09,4.67-4.67,4.67h-19.25c-2.58,0-4.67-2.09-4.67-4.67v-11.16c0-2.58,2.09-4.67,4.67-4.67h19.25c1.89,0,3.51,1.12,4.24,2.73-.39,1.01-1.11,1.96-2.49,2.16-3.16.47-9.82,1.72-10.17,5.36,0,0,3.27-4.14,13.08-3.52v9.11ZM224.63,74.5c3.43,2.25,7.8,4.85,9.63,4.85,3.22,0,5.13-.91,5.13-.91-6.08-.29-11.99-4.95-14.77-7.47v-.19c0-2.58,2.09-4.67,4.67-4.67h19.25c2.58,0,4.67,2.09,4.67,4.67v11.16c0,2.58-2.09,4.67-4.67,4.67h-19.25c-2.58,0-4.67-2.09-4.67-4.67v-7.44ZM224.63,86.38c0,2.58,2.09,4.67,4.67,4.67h19.25c2.58,0,4.67-2.09,4.67-4.67v6.65c0,2.58-2.09,4.67-4.67,4.67h-7.01v3.81h-2.62v-8.61l-1.01.26c-.95.25-1.61,1.11-1.61,2.09v2.44h-7.01c-2.58,0-4.67-2.09-4.67-4.67v-6.65ZM224.63,124.36c0,2.58,2.09,4.67,4.67,4.67h19.25c2.58,0,4.67-2.09,4.67-4.67v6.65c0,2.58-2.09,4.67-4.67,4.67h-7.01v3.81h-2.62v-8.61l-1.01.26c-.95.25-1.61,1.11-1.61,2.09v2.44h-7.01c-2.58,0-4.67-2.09-4.67-4.67v-6.65ZM224.63,162.35c0,2.58,2.09,4.67,4.67,4.67h19.25c2.58,0,4.67-2.09,4.67-4.67v6.65c0,2.58-2.09,4.67-4.67,4.67h-7.01v3.81h-2.62v-8.61l-1.01.26c-.95.25-1.61,1.11-1.61,2.09v2.44h-7.01c-2.58,0-4.67-2.09-4.67-4.67v-6.65ZM248.55,200.8h-7.1c1.29-1.27,3.15-3.48,4.44-6.7,2.17-5.42,4.22-5.19,4.22-5.19,0,0-2.34-1.33-5.02,1.65-2.05,2.28-6.31,7.75-11.31,10.25h-4.48c-2.58,0-4.67-2.09-4.67-4.67v-11.16c0-2.58,2.09-4.67,4.67-4.67h19.25c2.58,0,4.67,2.09,4.67,4.67v11.16c0,2.58-2.09,4.67-4.67,4.67Z"/>
        <path class="cls-2" d="M194.49,106.24c-1.34-.93-2.92-.95-4.44-.31-1.5.64-2.23,1.74-2.24,3.43-.05.6.22,1.37.85,2,1.48,1.46,3.04,2.86,4.76,4.09,1.67,1.2,4.04,1.02,5.56-.27,1.51-1.29,1.75-3.35.37-4.78-1.46-1.51-3.08-2.92-4.86-4.16Z"/>
      </g>
    </g>
  </g>
</svg>